<svg xmlns="http://www.w3.org/2000/svg" viewBox="0 0 64 64"><path d="M49.4 18l7.6 4.2V14zM49 9.2v8.4l7.6-4.2zm-.4 8.4V9.2L41 13.4zm-8-13V13l7.6-4.2zm-.4 8.4V4.6l-7.6 4.2zm-8-13v8.4l7.6-4.2zm-.4 8.4V0l-7.6 4.2zm-8-3.8V13l7.6-4.2zm-.4 8.4V4.6l-7.6 4.2zm-8-3.8v8.4l7.6-4.2zm-.4 8.4V9.4l-7.6 4zM7 14v8.2l7.6-4zm8 13v-8.4l-7.6 4.2zm-8-3.8v8.4l7.6-4.2zm8 13v-8.4L7.4 32zm.4-8.4v8.4L23 32zm8 13v-8.4l-7.6 4.2zm.4-8.4v8.4l7.6-4.2zm8 13V37l-7.6 4.2zm.4-8.4v8.4l7.6-4.2zm-.4-10v-8.4l-7.6 4.2zm.4-8.4V27l7.6-4.2zm8 13v-8.4l-7.6 4.2zm.4-8.4v8.4l7.6-4.2zm8 13v-8.4L41 32zm.4-8.4v8.4l7.6-4.2zm8 13v-8.4l-7.6 4.2zM49 37v8.4l7.6-4.2zm8 13v-8.2l-7.6 4zm-8 4.6l7.6-4-7.6-4.2zm-.4.2v-8.4L41 50.6zm-8 4.6l7.6-4.2-7.6-4.2zm-.4 0V51l-7.6 4.2zm-8 4.6l7.6-4.2-7.6-4.2zm-.4 0v-8.4l-7.6 4.2zm-8-13v8.4l7.6-4.2zm-.4 8.4V51l-7.6 4.2zm-8-13v8.4l7.6-4.2zm-.4 8.4v-8.4l-7.6 4.2zm-8-13V50l7.6-4z" fill-rule="evenodd" clip-rule="evenodd" fill="#2c3840"/></svg>