<?xml version="1.0" encoding="utf-8"?>
<!-- Generator: Adobe Illustrator 25.2.0, SVG Export Plug-In . SVG Version: 6.00 Build 0)  -->
<svg version="1.1" id="Layer_1" xmlns="http://www.w3.org/2000/svg" xmlns:xlink="http://www.w3.org/1999/xlink" x="0px" y="0px"
	 viewBox="0 0 64 64" style="enable-background:new 0 0 64 64;" xml:space="preserve">
<style type="text/css">
	.st0{fill-rule:evenodd;clip-rule:evenodd;fill:#2C3840;}
</style>
<g>
	<polygon class="st0" points="49.4,18 57,22.2 57,14 	"/>
	<polygon class="st0" points="49,9.2 49,17.6 56.6,13.4 	"/>
	<polygon class="st0" points="48.6,17.6 48.6,9.2 41,13.4 	"/>
	<polygon class="st0" points="40.6,4.6 40.6,13 48.2,8.8 	"/>
	<polygon class="st0" points="40.2,13 40.2,4.6 32.6,8.8 	"/>
	<polygon class="st0" points="32.2,0 32.2,8.4 39.8,4.2 	"/>
	<polygon class="st0" points="31.8,8.4 31.8,0 24.2,4.2 	"/>
	<polygon class="st0" points="23.8,4.6 23.8,13 31.4,8.8 	"/>
	<polygon class="st0" points="23.4,13 23.4,4.6 15.8,8.8 	"/>
	<polygon class="st0" points="15.4,9.2 15.4,17.6 23,13.4 	"/>
	<polygon class="st0" points="15,17.6 15,9.4 7.4,13.4 	"/>
	<polygon class="st0" points="7,14 7,22.2 14.6,18.2 	"/>
	<polygon class="st0" points="15,27 15,18.6 7.4,22.8 	"/>
	<polygon class="st0" points="7,23.2 7,31.6 14.6,27.4 	"/>
	<polygon class="st0" points="15,36.2 15,27.8 7.4,32 	"/>
	<polygon class="st0" points="15.4,27.8 15.4,36.2 23,32 	"/>
	<polygon class="st0" points="23.4,40.8 23.4,32.4 15.8,36.6 	"/>
	<polygon class="st0" points="23.8,32.4 23.8,40.8 31.4,36.6 	"/>
	<polygon class="st0" points="31.8,45.4 31.8,37 24.2,41.2 	"/>
	<polygon class="st0" points="32.2,37 32.2,45.4 39.8,41.2 	"/>
	<polygon class="st0" points="31.8,27 31.8,18.6 24.2,22.8 	"/>
	<polygon class="st0" points="32.2,18.6 32.2,27 39.8,22.8 	"/>
	<polygon class="st0" points="40.2,31.6 40.2,23.2 32.6,27.4 	"/>
	<polygon class="st0" points="40.6,23.2 40.6,31.6 48.2,27.4 	"/>
	<polygon class="st0" points="48.6,36.2 48.6,27.8 41,32 	"/>
	<polygon class="st0" points="49,27.8 49,36.2 56.6,32 	"/>
	<polygon class="st0" points="57,40.8 57,32.4 49.4,36.6 	"/>
	<polygon class="st0" points="49,37 49,45.4 56.6,41.2 	"/>
	<polygon class="st0" points="57,50 57,41.8 49.4,45.8 	"/>
	<polygon class="st0" points="49,54.6 56.6,50.6 49,46.4 	"/>
	<polygon class="st0" points="48.6,54.8 48.6,46.4 41,50.6 	"/>
	<polygon class="st0" points="40.6,59.4 48.2,55.2 40.6,51 	"/>
	<polygon class="st0" points="40.2,59.4 40.2,51 32.6,55.2 	"/>
	<polygon class="st0" points="32.2,64 39.8,59.8 32.2,55.6 	"/>
	<polygon class="st0" points="31.8,64 31.8,55.6 24.2,59.8 	"/>
	<polygon class="st0" points="23.8,51 23.8,59.4 31.4,55.2 	"/>
	<polygon class="st0" points="23.4,59.4 23.4,51 15.8,55.2 	"/>
	<polygon class="st0" points="15.4,46.4 15.4,54.8 23,50.6 	"/>
	<polygon class="st0" points="15,54.8 15,46.4 7.4,50.6 	"/>
	<polygon class="st0" points="7,41.8 7,50 14.6,46 	"/>
</g>
</svg>
